<?xml version="1.0" encoding="UTF-8"?>
<!DOCTYPE svg PUBLIC "-//W3C//DTD SVG 1.1//EN" "http://www.w3.org/Graphics/SVG/1.1/DTD/svg11.dtd">
<!-- Creator: CorelDRAW X7 -->
<svg xmlns="http://www.w3.org/2000/svg" xml:space="preserve" width="4402px" height="1114px" version="1.1" style="shape-rendering:geometricPrecision; text-rendering:geometricPrecision; image-rendering:optimizeQuality; fill-rule:evenodd; clip-rule:evenodd"
viewBox="0 0 8094 2048"
 xmlns:xlink="http://www.w3.org/1999/xlink">
 <defs>
  <style type="text/css">
   <![CDATA[
    .fil2 {fill:#00B5D1}
    .fil1 {fill:#464547}
    .fil0 {fill:#464547;fill-rule:nonzero}
   ]]>
  </style>
 </defs>
 <g id="Layer_x0020_1">
  <metadata id="CorelCorpID_0Corel-Layer"/>
  <path class="fil0" d="M4353 1720c-73,0 -126,-26 -159,-76 -34,-51 -51,-127 -52,-230l0 -784 -93 0 0 -189 93 0 0 -441 186 0 0 441 140 0 0 189 -140 0 0 736c0,50 5,88 16,111 10,24 30,36 61,36 14,0 34,-4 63,-10l0 205c-47,8 -85,12 -115,12z"/>
  <path class="fil1" d="M882 1139l0 301c0,77 37,114 114,114l33 0c77,0 114,-37 114,-114l0 -147 176 0 0 141c0,193 -97,292 -292,292l-37 0c-193,0 -293,-97 -293,-269l0 -739c0,-215 98,-315 293,-315l37 0c193,0 292,97 292,292l0 442 -437 0 0 2zm0 -176l259 0 0 -274c0,-77 -37,-114 -114,-114l-29 0c-77,0 -114,37 -114,114l0 274 -2 0z"/>
  <path class="fil1" d="M1440 420l182 0 0 83c44,-46 118,-98 222,-98 156,0 233,104 233,255l0 809c0,154 -77,255 -233,255 -106,0 -178,-49 -222,-93l0 417 -182 0 0 -1628zm182 1066c50,43 108,66 168,66 67,0 106,-31 106,-106l0 -763c0,-75 -37,-106 -106,-106 -60,0 -118,25 -168,67l0 842z"/>
  <path class="fil1" d="M2186 1262c0,-160 52,-224 191,-272l245 -83 0 -218c0,-77 -37,-118 -114,-118l-29 0c-77,0 -114,41 -114,118l0 183 -176 0 0 -177c0,-192 97,-292 292,-292l35 0c193,0 293,97 293,292l0 1015 -183 0 0 -81c-50,48 -118,95 -222,95 -145,0 -213,-83 -213,-228l0 -234 -5 0zm436 230l0 -425 -166 62c-66,27 -89,60 -89,135l0 197c0,62 31,93 89,93 56,-2 106,-20 166,-62z"/>
  <path class="fil1" d="M3539 1710l-183 0 0 -1039c0,-65 -31,-94 -87,-94 -49,0 -103,19 -168,65l0 1068 -182 0 0 -1290 182 0 0 83c52,-50 123,-98 222,-98 94,0 156,37 189,106 64,-56 141,-106 247,-106 141,0 214,87 214,228l0 1079 -183 0 0 -1041c0,-65 -31,-94 -87,-94 -50,0 -104,19 -168,65l0 1068 4 0z"/>
  <polygon class="fil2" points="467,538 467,776 162,1067 467,1353 467,1596 0,1156 0,982 "/>
  <polygon class="fil2" points="8094,982 8094,1156 7627,1596 7627,1353 7932,1067 7627,774 7627,538 "/>
  <path class="fil0" d="M4609 1715l0 -1293 186 0 0 172c19,-51 46,-95 82,-133 36,-39 76,-58 120,-58 1,0 11,2 30,4l0 286c-35,-19 -69,-28 -103,-28 -39,0 -70,16 -94,49 -23,32 -35,75 -35,128l0 873 -186 0z"/>
  <polygon class="fil0" points="6004,1711 5788,427 5973,427 6106,1391 6228,427 6413,427 6198,1711 "/>
  <polygon class="fil0" points="7215,1714 7215,22 7397,22 7397,1714 "/>
  <path class="fil1" d="M5085 1272c0,-160 52,-224 191,-272l245 -83 0 -217c0,-77 -37,-119 -114,-119l-29 0c-77,0 -114,42 -114,119l0 182 -177 0 0 -176c0,-193 98,-293 293,-293l35 0c193,0 293,98 293,293l0 1014 -183 0 0 -81c-50,48 -118,96 -222,96 -145,0 -213,-83 -213,-229l0 -234 -5 0zm436 230l0 -425 -166 62c-66,27 -89,60 -89,135l0 197c0,62 31,94 89,94 56,-3 106,-21 166,-63z"/>
  <path class="fil1" d="M6650 1150l0 301c0,77 38,114 114,114l34 0c76,0 114,-37 114,-114l0 -147 176 0 0 141c0,193 -98,292 -293,292l-37 0c-193,0 -292,-97 -292,-269l0 -739c0,-216 97,-315 292,-315l37 0c193,0 293,97 293,292l0 442 -438 0 0 2zm0 -176l260 0 0 -274c0,-77 -38,-114 -115,-114l-29 0c-76,0 -114,37 -114,114l0 274 -2 0z"/>
 </g>
</svg>
